<svg width="17" height="17" viewBox="0 0 17 17" fill="none" xmlns="http://www.w3.org/2000/svg">
<path d="M6.02085 13.4584H5.66669C2.83335 13.4584 1.41669 12.7501 1.41669 9.20842V5.66675C1.41669 2.83341 2.83335 1.41675 5.66669 1.41675H11.3334C14.1667 1.41675 15.5834 2.83341 15.5834 5.66675V9.20842C15.5834 12.0417 14.1667 13.4584 11.3334 13.4584H10.9792C10.7596 13.4584 10.5471 13.5647 10.4125 13.7417L9.35002 15.1584C8.88252 15.7817 8.11752 15.7817 7.65002 15.1584L6.58752 13.7417C6.47419 13.5859 6.2121 13.4584 6.02085 13.4584Z" stroke="#31A885" stroke-width="1.5" stroke-miterlimit="10" stroke-linecap="round" stroke-linejoin="round"/>
<path d="M4.95831 5.66675H12.0416" stroke="#31A885" stroke-width="1.5" stroke-linecap="round" stroke-linejoin="round"/>
<path d="M4.95831 9.20825H9.20831" stroke="#31A885" stroke-width="1.5" stroke-linecap="round" stroke-linejoin="round"/>
</svg>
