<svg width="728" height="727" viewBox="0 0 728 727" fill="none" xmlns="http://www.w3.org/2000/svg">
<path d="M364.118 60.6432C196.752 60.6432 61.467 195.928 61.467 363.295C61.467 530.661 196.752 665.946 364.118 665.946C531.485 665.946 666.77 530.661 666.77 363.295C666.77 195.928 531.485 60.6432 364.118 60.6432ZM494.258 493.435C482.455 505.238 463.388 505.238 451.585 493.435L364.118 405.968L276.652 493.435C264.849 505.238 245.782 505.238 233.978 493.435C222.175 481.631 222.175 462.564 233.978 450.761L321.445 363.295L233.978 275.828C222.175 264.025 222.175 244.958 233.978 233.154C245.782 221.351 264.849 221.351 276.652 233.154L364.118 320.621L451.585 233.154C463.388 221.351 482.455 221.351 494.258 233.154C506.062 244.958 506.062 264.025 494.258 275.828L406.792 363.295L494.258 450.761C505.759 462.262 505.759 481.631 494.258 493.435Z" fill="gray"/>
</svg>
